<svg width="24" height="24" viewBox="0 0 24 24" fill="none" xmlns="http://www.w3.org/2000/svg">
<path d="M4.52937 6.27388C7.44226 3.9267 11.1369 3.05077 14.1221 3.28755C15.6137 3.4059 16.9848 3.80699 18.0059 4.49654C19.0419 5.19626 19.7501 6.22468 19.7501 7.52876C19.7499 8.62202 19.0735 9.47409 18.296 10.0952C17.5081 10.7244 16.491 11.2215 15.5245 11.602C15.4964 11.613 15.4676 11.6224 15.4395 11.6333C15.9775 11.7789 16.5112 11.9827 16.9659 12.2729C17.6732 12.7245 18.2501 13.4322 18.2501 14.4516C18.2499 15.9213 17.4641 16.9286 16.4024 17.5668C15.377 18.1832 14.0642 18.4826 12.837 18.6264C11.5955 18.7719 10.3644 18.7663 9.45125 18.726C8.99287 18.7058 8.61019 18.6761 8.3409 18.6518C8.20623 18.6397 8.09925 18.6286 8.02547 18.6206C7.98901 18.6166 7.96037 18.6141 7.94051 18.6118C7.93071 18.6106 7.92257 18.6095 7.91707 18.6088C7.91437 18.6085 7.91023 18.6079 7.91023 18.6079H7.9073C7.87141 18.6034 7.83673 18.5946 7.80281 18.5854C7.76936 19.0656 7.75008 19.5391 7.75008 20.0004C7.74984 20.4144 7.4141 20.7504 7.00008 20.7504C6.58601 20.7504 6.25031 20.4145 6.25008 20.0004C6.25008 15.8855 7.61634 10.9435 8.27254 8.3188C8.37299 7.91704 8.77995 7.6726 9.18172 7.7729C9.58336 7.87343 9.8279 8.28039 9.72762 8.68208C9.21204 10.7444 8.33647 13.975 7.94734 17.1137C7.99497 17.1104 8.04369 17.1125 8.09285 17.1186L8.09676 17.1196C8.10036 17.12 8.10649 17.1206 8.11433 17.1215C8.1303 17.1234 8.1551 17.1258 8.18758 17.1293C8.25295 17.1365 8.35071 17.1474 8.47566 17.1586C8.72586 17.1812 9.08561 17.2079 9.51765 17.227C10.3856 17.2653 11.53 17.269 12.6632 17.1362C13.8105 17.0017 14.8733 16.7348 15.629 16.2807C16.348 15.8485 16.7499 15.2797 16.7501 14.4516C16.7501 14.0925 16.5765 13.804 16.1593 13.5376C15.7183 13.2561 15.0806 13.0574 14.3682 12.9301C13.6686 12.8051 12.9587 12.7594 12.418 12.7456C12.1496 12.7387 11.9264 12.7398 11.7716 12.7426C11.6943 12.744 11.6337 12.7461 11.5938 12.7475C11.5742 12.7482 11.5593 12.7481 11.5499 12.7485C11.5454 12.7487 11.5401 12.7495 11.5401 12.7495H11.5382C11.1448 12.7695 10.8034 12.4813 10.7559 12.0903C10.7088 11.699 10.9723 11.3382 11.3595 11.2641L11.3624 11.2631C11.3652 11.2626 11.3699 11.2614 11.3761 11.2602C11.3886 11.2577 11.4081 11.2537 11.4337 11.2485C11.4852 11.2379 11.5626 11.2223 11.6612 11.2006C11.8587 11.1572 12.143 11.0907 12.4845 11.0024C13.1696 10.8252 14.0762 10.5606 14.9757 10.2065C15.8838 9.84898 16.7422 9.41706 17.3604 8.9233C17.9887 8.42143 18.2499 7.9542 18.2501 7.52876C18.2501 6.83867 17.8953 6.23218 17.1661 5.7397C16.4217 5.23709 15.3238 4.88842 14.003 4.78365C11.3634 4.57434 8.05779 5.35731 5.47078 7.44185C5.14837 7.70145 4.67599 7.6507 4.41609 7.32857C4.15627 7.00613 4.20709 6.53383 4.52937 6.27388Z" fill="black" fill-opacity="0.87" style="fill:black;fill-opacity:0.87;"/>
</svg>
