<svg width="24" height="24" viewBox="0 0 24 24" fill="none" xmlns="http://www.w3.org/2000/svg">
<path d="M11.9997 6.74996C12.4138 6.75007 12.7497 7.08583 12.7497 7.49996V10.7002L15.5212 9.10055C15.8798 8.89348 16.3394 9.01642 16.5466 9.37496C16.7535 9.73365 16.6298 10.1923 16.2712 10.3994L13.4987 12L16.2712 13.6005C16.6299 13.8077 16.7527 14.2662 16.5456 14.625C16.3384 14.9834 15.8798 15.1064 15.5212 14.8994L12.7497 13.2988V16.5C12.7497 16.9141 12.4138 17.2498 11.9997 17.25C11.5857 17.2497 11.2497 16.914 11.2497 16.5V13.2978L8.47723 14.8994C8.11857 15.1062 7.65984 14.9835 7.45281 14.625C7.246 14.2664 7.36897 13.8077 7.72723 13.6005L10.4987 12L7.72723 10.3994C7.36889 10.1922 7.24593 9.73351 7.45281 9.37496C7.65986 9.0164 8.11858 8.89375 8.47723 9.10055L11.2497 10.7011V7.49996C11.2497 7.08592 11.5857 6.75022 11.9997 6.74996Z" fill="black" fill-opacity="0.87" style="fill:black;fill-opacity:0.87;"/>
<path fill-rule="evenodd" clip-rule="evenodd" d="M13.444 2.3818C15.9984 1.97847 18.5045 2.48331 20.2458 4.13277C21.9152 5.71465 22.4891 7.97855 22.1618 10.3154C21.8553 12.5037 20.7587 14.7931 18.985 16.7939L20.6706 20.164C20.809 20.4408 20.7632 20.7747 20.5554 21.0039C20.3473 21.233 20.019 21.3112 19.7302 21.2002L15.654 19.6328C11.599 22.2027 6.65091 22.612 3.75359 19.8671C2.00353 18.2088 1.45943 15.8044 1.89129 13.3496C2.32264 10.8977 3.7283 8.34132 5.96258 6.22457C8.19744 4.10739 10.884 2.78614 13.444 2.3818ZM19.2136 5.22164C17.9054 3.98249 15.9198 3.51031 13.6784 3.86422C11.4427 4.21728 9.02784 5.3865 6.99383 7.31344C4.9592 9.24106 3.73582 11.5178 3.36785 13.6093C3.00045 15.6977 3.48709 17.5478 4.78582 18.7783C7.02113 20.8959 11.3034 20.7539 15.1491 18.1728C15.3518 18.0367 15.6087 18.0081 15.8366 18.0957L18.4636 19.1054L17.4128 17.0039C17.2719 16.7217 17.3226 16.3811 17.5397 16.1523C19.3428 14.2537 20.3985 12.0845 20.6755 10.1074C20.9517 8.13497 20.4542 6.39704 19.2136 5.22164Z" fill="black" fill-opacity="0.87" style="fill:black;fill-opacity:0.87;"/>
</svg>
