<svg width="24" height="24" viewBox="0 0 24 24" fill="none" xmlns="http://www.w3.org/2000/svg">
<path d="M11.5 6.25C11.9142 6.25 12.25 6.58579 12.25 7V7.62891H17C17.4141 7.62891 17.7498 7.96488 17.75 8.37891C17.75 8.79312 17.4142 9.12891 17 9.12891H15.0518C14.5125 10.7297 13.6106 12.2276 12.5967 13.5635L14.0762 15.1006C14.3633 15.3991 14.3541 15.874 14.0557 16.1611C13.7571 16.4483 13.2823 16.4391 12.9951 16.1406L11.6455 14.7383C10.7257 15.8068 9.76349 16.7581 8.90039 17.5518C8.59552 17.8321 8.1212 17.8126 7.84082 17.5078C7.56057 17.203 7.58024 16.7287 7.88477 16.4482C8.76167 15.6419 9.7296 14.6826 10.6357 13.6133C10.4074 13.3265 10.1706 13.016 9.9541 12.7158C9.61732 12.2487 9.28875 11.7552 9.12695 11.4082C8.95196 11.0328 9.11483 10.5861 9.49023 10.4111C9.86567 10.2361 10.3123 10.399 10.4873 10.7744C10.5828 10.9791 10.8331 11.3704 11.1709 11.8389C11.3059 12.0261 11.449 12.2171 11.5918 12.4023C12.3538 11.3652 13.0109 10.2648 13.457 9.12891H7C6.58579 9.12891 6.25 8.79312 6.25 8.37891C6.25022 7.96488 6.58592 7.62891 7 7.62891H10.75V7C10.75 6.58579 11.0858 6.25 11.5 6.25Z" fill="black" fill-opacity="0.87" style="fill:black;fill-opacity:0.87;"/>
<path fill-rule="evenodd" clip-rule="evenodd" d="M12 1.25C17.9371 1.25 22.75 6.06294 22.75 12C22.75 17.9371 17.9371 22.75 12 22.75C6.06294 22.75 1.25 17.9371 1.25 12C1.25 6.06294 6.06294 1.25 12 1.25ZM12 2.75C6.89137 2.75 2.75 6.89137 2.75 12C2.75 17.1086 6.89137 21.25 12 21.25C17.1086 21.25 21.25 17.1086 21.25 12C21.25 6.89137 17.1086 2.75 12 2.75Z" fill="black" fill-opacity="0.87" style="fill:black;fill-opacity:0.87;"/>
</svg>
