<svg width="24" height="24" viewBox="0 0 24 24" fill="none" xmlns="http://www.w3.org/2000/svg">
<path fill-rule="evenodd" clip-rule="evenodd" d="M8.59961 1.25C9.61551 1.25 10.4536 1.24809 11.1143 1.33692C11.7964 1.42866 12.4011 1.62955 12.8857 2.11426C13.3704 2.59895 13.5713 3.20361 13.6631 3.88575C13.7486 4.52171 13.749 5.32205 13.749 6.28711C16.7927 6.60205 19.2385 8.92638 19.7393 11.9111L19.6914 11.9189C21.5105 12.8845 22.75 14.797 22.75 17C22.75 20.1756 20.1756 22.75 17 22.75C14.797 22.75 12.8845 21.5105 11.9189 19.6914L11.9111 19.7393C8.92638 19.2385 6.60205 16.7927 6.28711 13.749C5.32205 13.749 4.52171 13.7486 3.88575 13.6631C3.20361 13.5713 2.59895 13.3704 2.11426 12.8857C1.62955 12.4011 1.42866 11.7964 1.33692 11.1143C1.24809 10.4536 1.25 9.61551 1.25 8.59961V6.40039C1.25 5.38451 1.24809 4.54643 1.33692 3.88575C1.42866 3.20361 1.62957 2.59895 2.11426 2.11426C2.59895 1.62957 3.20361 1.42866 3.88575 1.33692C4.54643 1.24809 5.38451 1.25 6.40039 1.25H8.59961ZM17 12.75C14.6528 12.75 12.75 14.6528 12.75 17C12.75 19.3472 14.6528 21.25 17 21.25C19.3472 21.25 21.25 19.3472 21.25 17C21.25 14.6528 19.3472 12.75 17 12.75ZM13.042 7.75C10.1194 7.75001 7.75001 10.1194 7.75 13.042C7.75009 15.3717 9.25694 17.3494 11.3486 18.0557C11.2851 17.7134 11.25 17.3607 11.25 17C11.25 13.8244 13.8244 11.25 17 11.25C17.3607 11.25 17.7134 11.2851 18.0557 11.3486C17.3494 9.25694 15.3717 7.75009 13.042 7.75ZM6.40039 2.75C5.3421 2.75 4.62344 2.75196 4.08594 2.82422C3.57006 2.89359 3.33441 3.01521 3.17481 3.17481C3.01521 3.33441 2.89359 3.57006 2.82422 4.08594C2.75196 4.62344 2.75 5.3421 2.75 6.40039V8.59961C2.75 9.65791 2.75196 10.3766 2.82422 10.9141C2.89359 11.43 3.01523 11.6656 3.17481 11.8252C3.33441 11.9848 3.57007 12.1064 4.08594 12.1758C4.60572 12.2457 5.29494 12.2488 6.29688 12.249C6.65943 9.13182 9.13182 6.65943 12.249 6.29688C12.2488 5.29494 12.2457 4.60572 12.1758 4.08594C12.1064 3.57007 11.9848 3.33441 11.8252 3.17481C11.6656 3.01523 11.43 2.89359 10.9141 2.82422C10.3766 2.75196 9.65791 2.75 8.59961 2.75H6.40039Z" fill="black" fill-opacity="0.87" style="fill:black;fill-opacity:0.87;"/>
</svg>
