<svg width="24" height="24" viewBox="0 0 24 24" fill="none" xmlns="http://www.w3.org/2000/svg">
<path d="M15 16.25C15.4142 16.25 15.75 16.5858 15.75 17C15.75 17.4142 15.4142 17.75 15 17.75H13C12.5858 17.75 12.25 17.4142 12.25 17C12.25 16.5858 12.5858 16.25 13 16.25H15Z" fill="black" fill-opacity="0.87" style="fill:black;fill-opacity:0.87;"/>
<path d="M17 12.25C17.4142 12.25 17.75 12.5858 17.75 13C17.75 13.4142 17.4142 13.75 17 13.75H13C12.5858 13.75 12.25 13.4142 12.25 13C12.25 12.5858 12.5858 12.25 13 12.25H17Z" fill="black" fill-opacity="0.87" style="fill:black;fill-opacity:0.87;"/>
<path d="M7.00879 5C7.56096 5.00013 8.00879 5.4478 8.00879 6C8.00879 6.5522 7.56096 6.99987 7.00879 7H7C6.44772 7 6 6.55229 6 6C6 5.44772 6.44772 5 7 5H7.00879Z" fill="black" fill-opacity="0.87" style="fill:black;fill-opacity:0.87;"/>
<path d="M11.0088 5C11.561 5.00013 12.0088 5.4478 12.0088 6C12.0088 6.5522 11.561 6.99987 11.0088 7H11C10.4477 7 10 6.55229 10 6C10 5.44772 10.4477 5 11 5H11.0088Z" fill="black" fill-opacity="0.87" style="fill:black;fill-opacity:0.87;"/>
<path fill-rule="evenodd" clip-rule="evenodd" d="M12 1.75C14.2177 1.75 15.9565 1.74854 17.3115 1.93066C18.6882 2.11575 19.7804 2.50315 20.6387 3.36133C21.4968 4.21953 21.8843 5.31182 22.0693 6.68848C22.2515 8.0435 22.25 9.78227 22.25 12C22.25 14.2177 22.2515 15.9565 22.0693 17.3115C21.8843 18.6882 21.4968 19.7804 20.6387 20.6387C19.7804 21.4968 18.6882 21.8843 17.3115 22.0693C15.9565 22.2515 14.2177 22.25 12 22.25C10.9521 22.25 10.0111 22.2484 9.16699 22.2295C9.11317 22.2418 9.05754 22.25 9 22.25C8.93103 22.25 8.8652 22.2372 8.80176 22.2197C8.0107 22.1956 7.30928 22.1528 6.68848 22.0693C5.31182 21.8843 4.21953 21.4968 3.36133 20.6387C2.50315 19.7804 2.11575 18.6882 1.93066 17.3115C1.74854 15.9565 1.75 14.2177 1.75 12C1.75 9.78227 1.74854 8.0435 1.93066 6.68848C2.11575 5.31182 2.50313 4.21953 3.36133 3.36133C4.21953 2.50313 5.31182 2.11575 6.68848 1.93066C8.0435 1.74854 9.78227 1.75 12 1.75ZM9.75 20.7373C10.4215 20.7458 11.1673 20.75 12 20.75C14.2604 20.75 15.8804 20.7486 17.1123 20.583C18.3225 20.4203 19.0451 20.1111 19.5781 19.5781C20.1111 19.0451 20.4203 18.3225 20.583 17.1123C20.7486 15.8804 20.75 14.2604 20.75 12C20.75 11.1673 20.7468 10.4215 20.7383 9.75H9.75V20.7373ZM3.26172 9.75C3.2532 10.4215 3.25 11.1673 3.25 12C3.25 14.2604 3.25137 15.8804 3.41699 17.1123C3.57972 18.3225 3.88887 19.0451 4.42188 19.5781C4.9549 20.1111 5.67747 20.4203 6.8877 20.583C7.29605 20.6379 7.74716 20.6725 8.25 20.6973V9.75H3.26172ZM12 3.25C9.73963 3.25 8.1196 3.25137 6.8877 3.41699C5.67747 3.57972 4.9549 3.88886 4.42188 4.42188C3.88886 4.9549 3.57972 5.67747 3.41699 6.8877C3.36209 7.29606 3.3265 7.74714 3.30176 8.25H20.6982C20.6735 7.74714 20.6379 7.29606 20.583 6.8877C20.4203 5.67747 20.1111 4.9549 19.5781 4.42188C19.0451 3.88887 18.3225 3.57972 17.1123 3.41699C15.8804 3.25137 14.2604 3.25 12 3.25Z" fill="black" fill-opacity="0.87" style="fill:black;fill-opacity:0.87;"/>
</svg>
