<svg width="24" height="24" viewBox="0 0 24 24" fill="none" xmlns="http://www.w3.org/2000/svg">
<path d="M12.0049 20C12.5572 20 13.0049 20.4477 13.0049 21C13.0049 21.5523 12.5572 22 12.0049 22H11.9961C11.4438 22 10.9961 21.5523 10.9961 21C10.9961 20.4477 11.4438 20 11.9961 20H12.0049Z" fill="black" fill-opacity="0.87" style="fill:black;fill-opacity:0.87;"/>
<path d="M5.64355 17.3643C6.19562 17.3645 6.64355 17.8121 6.64355 18.3643C6.64342 18.9163 6.19553 19.364 5.64355 19.3643H5.63379C5.08173 19.3641 4.63393 18.9163 4.63379 18.3643C4.63379 17.8121 5.08164 17.3644 5.63379 17.3643H5.64355Z" fill="black" fill-opacity="0.87" style="fill:black;fill-opacity:0.87;"/>
<path d="M18.3672 17.3643C18.9194 17.3643 19.3671 17.8121 19.3672 18.3643C19.3672 18.9165 18.9195 19.3643 18.3672 19.3643H18.3584C17.8061 19.3643 17.3584 18.9165 17.3584 18.3643C17.3585 17.8121 17.8062 17.3643 18.3584 17.3643H18.3672Z" fill="black" fill-opacity="0.87" style="fill:black;fill-opacity:0.87;"/>
<path fill-rule="evenodd" clip-rule="evenodd" d="M12 6.25C15.1756 6.25 17.75 8.82436 17.75 12C17.75 15.1756 15.1756 17.75 12 17.75C8.82436 17.75 6.25 15.1756 6.25 12C6.25 8.82437 8.82437 6.25 12 6.25ZM12 7.75C9.65279 7.75 7.75 9.65279 7.75 12C7.75 14.3472 9.6528 16.25 12 16.25C14.3472 16.25 16.25 14.3472 16.25 12C16.25 9.6528 14.3472 7.75 12 7.75Z" fill="black" fill-opacity="0.87" style="fill:black;fill-opacity:0.87;"/>
<path d="M3.00879 11.001C3.56107 11.001 4.00879 11.4487 4.00879 12.001C4.00859 12.5531 3.56095 13.001 3.00879 13.001H3C2.44784 13.001 2.0002 12.5531 2 12.001C2 11.4487 2.44772 11.001 3 11.001H3.00879Z" fill="black" fill-opacity="0.87" style="fill:black;fill-opacity:0.87;"/>
<path d="M21 11.001C21.5523 11.001 22 11.4487 22 12.001C21.9998 12.5531 21.5522 13.001 21 13.001H20.9912C20.4391 13.001 19.9914 12.5531 19.9912 12.001C19.9912 11.4487 20.4389 11.001 20.9912 11.001H21Z" fill="black" fill-opacity="0.87" style="fill:black;fill-opacity:0.87;"/>
<path d="M5.64355 4.63672C6.19562 4.63698 6.64355 5.0846 6.64355 5.63672C6.64342 6.18873 6.19553 6.63646 5.64355 6.63672H5.63379C5.08173 6.63656 4.63392 6.18879 4.63379 5.63672C4.63379 5.08453 5.08164 4.63688 5.63379 4.63672H5.64355Z" fill="black" fill-opacity="0.87" style="fill:black;fill-opacity:0.87;"/>
<path d="M18.3682 4.63574C18.9202 4.63594 19.368 5.08369 19.3682 5.63574C19.3682 6.18791 18.9203 6.63555 18.3682 6.63574H18.3584C17.8063 6.63552 17.3584 6.18789 17.3584 5.63574C17.3585 5.08371 17.8064 4.63596 18.3584 4.63574H18.3682Z" fill="black" fill-opacity="0.87" style="fill:black;fill-opacity:0.87;"/>
<path d="M12.0049 2C12.557 2.00021 13.0049 2.44784 13.0049 3C13.0049 3.55216 12.557 3.99979 12.0049 4H11.9951C11.443 3.99979 10.9951 3.55216 10.9951 3C10.9951 2.44784 11.443 2.00021 11.9951 2H12.0049Z" fill="black" fill-opacity="0.87" style="fill:black;fill-opacity:0.87;"/>
</svg>
