<svg width="24" height="24" viewBox="0 0 24 24" fill="none" xmlns="http://www.w3.org/2000/svg">
<path fill-rule="evenodd" clip-rule="evenodd" d="M20.5011 2.25658C20.7057 2.24153 20.9492 2.26339 21.1808 2.39135C21.4401 2.53474 21.6009 2.76262 21.6808 3.00072C21.8195 3.41432 21.726 3.87949 21.6076 4.25463C21.3526 5.06224 20.7442 6.15595 19.8488 7.42064C18.0491 9.96241 14.9478 13.3887 10.6173 16.9587C10.6187 16.9872 10.6216 17.016 10.6222 17.0447C10.6416 17.9361 10.3033 18.8351 9.66322 19.7175C8.92099 20.7406 7.54966 21.2855 6.31459 21.5427C5.05793 21.8044 3.70602 21.8177 2.80775 21.5798C2.61347 21.5283 2.44832 21.4 2.34877 21.2253C2.24936 21.0507 2.22374 20.8435 2.27846 20.6501C2.63895 19.3761 2.67301 19.1531 2.67787 18.9011C2.68388 18.5877 2.63333 18.1027 2.75697 16.6287C2.76137 16.5767 2.77124 16.5252 2.78627 16.4753C2.90678 16.0757 3.24341 14.3923 5.2306 13.5818C5.83 13.3373 6.39592 13.2557 6.91127 13.282C6.91622 13.2758 6.92172 13.2694 6.92689 13.2634C8.4899 11.4474 11.0341 8.77311 13.5675 6.52807C14.8335 5.40618 16.1129 4.37709 17.2755 3.61498C18.3891 2.88506 19.5158 2.31878 20.4669 2.25854C20.4732 2.25794 20.4801 2.25809 20.4865 2.25756C20.4913 2.25728 20.4963 2.25683 20.5011 2.25658ZM7.55482 14.9451C7.1078 14.7574 6.5162 14.6772 5.79701 14.9704C4.613 15.4534 4.38291 16.3451 4.24525 16.8269C4.13456 18.1791 4.18481 18.5186 4.17689 18.9304C4.17005 19.2837 4.11443 19.6014 3.9474 20.2351C4.53521 20.2698 5.27085 20.2277 6.00892 20.074C7.13885 19.8386 8.04383 19.3956 8.44935 18.8367C8.95673 18.1371 9.13257 17.5521 9.12221 17.0769C9.11191 16.6106 8.92053 16.1534 8.50502 15.7029C8.47702 15.6725 8.45147 15.6398 8.42885 15.6052C8.33695 15.4648 8.02976 15.1445 7.55482 14.9451ZM11.2042 10.8533C10.1866 11.8867 9.25608 12.8875 8.50111 13.7419C9.02857 14.0337 9.42175 14.4135 9.64369 14.7292C9.83471 14.9413 10.0007 15.1669 10.1408 15.404C11.2087 14.5072 12.1945 13.6235 13.0968 12.7654L11.2042 10.8533ZM20.1681 3.82592C19.6543 3.96569 18.9559 4.30743 18.0978 4.86986C17.02 5.57638 15.8014 6.55244 14.5626 7.65014C13.789 8.33573 13.0143 9.06513 12.2667 9.79564L14.171 11.7175C16.1113 9.77453 17.6002 8.00062 18.6242 6.55443C19.4806 5.34483 19.9782 4.41073 20.1681 3.82592Z" fill="black" fill-opacity="0.87" style="fill:black;fill-opacity:0.87;"/>
</svg>
